<?xml version="1.0" standalone="no"?>
<!DOCTYPE svg PUBLIC "-//W3C//DTD SVG 20010904//EN"
 "http://www.w3.org/TR/2001/REC-SVG-20010904/DTD/svg10.dtd">
<svg version="1.0" xmlns="http://www.w3.org/2000/svg"
 width="500.000000pt" height="500.000000pt" viewBox="0 0 500.000000 500.000000"
 preserveAspectRatio="xMidYMid meet">
<metadata>
Created by potrace 1.11, written by Peter Selinger 2001-2013
</metadata>
<g transform="translate(0.000000,500.000000) scale(0.100000,-0.100000)"
fill="#000000" stroke="none">
<path d="M2760 4979 c-47 -10 -105 -20 -129 -24 -25 -3 -47 -8 -50 -10 -3 -1
-24 -6 -46 -9 -22 -4 -83 -15 -135 -26 -100 -20 -357 -69 -400 -76 -14 -2 -83
-15 -155 -29 -71 -14 -188 -36 -260 -49 -71 -14 -215 -41 -320 -61 -293 -56
-338 -64 -365 -69 -14 -3 -108 -20 -210 -40 -102 -19 -196 -37 -210 -40 -133
-23 -405 -79 -425 -86 -59 -22 -55 104 -55 -1939 0 -1097 4 -1880 9 -1894 11
-28 47 -53 87 -60 16 -3 54 -10 84 -16 30 -6 71 -13 90 -16 19 -3 42 -8 50
-10 8 -2 31 -7 50 -10 19 -3 67 -12 105 -20 39 -8 81 -16 95 -18 61 -12 156
-29 165 -31 6 -2 28 -6 50 -10 22 -4 72 -14 110 -21 39 -8 81 -16 95 -18 53
-10 146 -27 170 -32 14 -3 86 -17 160 -31 74 -14 146 -28 160 -30 14 -3 36 -7
50 -9 14 -3 36 -8 50 -10 14 -3 122 -23 240 -45 118 -23 261 -50 318 -61 56
-10 150 -28 210 -40 59 -11 130 -24 157 -29 28 -5 121 -23 209 -40 87 -16 170
-28 184 -25 14 2 37 16 51 29 l25 26 2 262 c1 145 2 265 3 268 1 3 385 5 853
4 915 0 901 -1 960 50 28 25 57 74 64 109 7 36 5 3435 -2 3464 -8 32 -39 80
-69 105 -48 42 -65 43 -954 43 -468 0 -851 2 -852 5 -1 3 -2 124 -3 268 l-1
264 -33 29 c-38 34 -51 34 -182 8z m17 -2459 c0 -1304 -4 -2260 -9 -2260 -5 0
-41 7 -81 14 -90 18 -330 64 -377 71 -19 3 -53 10 -75 15 -22 5 -114 23 -205
40 -91 17 -185 35 -210 40 -25 5 -119 24 -210 41 -91 17 -172 32 -180 34 -21
4 -190 36 -220 42 -14 2 -83 16 -155 30 -71 14 -141 27 -155 29 -14 3 -119 22
-235 45 -314 60 -358 68 -385 73 -55 9 -80 19 -80 30 -4 94 0 3519 4 3523 4 4
284 60 391 78 17 3 53 10 80 15 69 14 91 18 155 30 30 6 66 12 80 15 38 8 122
25 150 30 14 2 178 34 365 69 187 36 352 67 367 70 15 3 63 12 105 20 43 9 89
18 103 20 14 3 39 8 55 11 17 3 77 15 135 25 58 11 116 22 130 25 14 3 41 8
60 11 19 3 37 7 40 9 3 2 23 6 45 9 22 4 94 17 160 30 66 14 127 25 136 25 15
1 16 -189 16 -2259z m1884 1671 c1 -21 1 -3310 0 -3337 l-1 -20 -837 0 c-461
-1 -840 3 -843 7 -3 4 -5 114 -5 246 l0 238 199 5 199 5 -1 80 c0 44 -1 88 -1
97 -1 16 -19 18 -198 20 l-197 3 -1 288 c0 248 2 290 15 296 8 4 97 6 198 6
l182 -1 1 25 c3 84 1 162 -4 167 -3 4 -93 6 -199 5 l-193 -1 1 233 c1 127 2
239 3 248 1 14 24 16 191 16 105 0 193 3 196 6 5 5 8 111 5 172 -1 20 -7 21
-192 20 -183 0 -192 1 -198 20 -4 11 -7 121 -6 245 l0 225 199 5 200 5 -1 95
-1 95 -198 5 -199 5 0 230 c0 127 1 237 3 245 3 14 95 16 843 16 759 1 839 -1
840 -15z"/>
<path d="M674 3439 c-3 -6 431 -758 490 -849 47 -72 57 -50 -196 -445 -317
-496 -348 -545 -348 -551 0 -2 111 -3 246 -2 207 3 248 5 255 18 5 8 46 85 92
170 164 304 181 336 202 375 13 22 31 66 40 97 20 63 29 66 38 12 5 -31 76
-171 281 -555 72 -134 35 -120 313 -117 l242 3 -134 220 c-74 121 -143 234
-153 250 -76 118 -275 452 -275 460 0 6 14 33 30 60 194 324 497 822 504 829
26 28 3 31 -217 31 l-227 0 -22 -35 c-12 -19 -46 -80 -75 -135 -30 -55 -89
-164 -131 -243 -43 -79 -90 -180 -105 -225 l-27 -81 -19 59 c-10 33 -83 195
-162 360 l-144 300 -247 0 c-136 0 -249 -3 -251 -6z"/>
<path d="M3570 3610 l0 -100 398 2 397 3 0 98 1 97 -398 0 -398 0 0 -100z"/>
<path d="M3570 2918 c0 -95 1 -98 23 -99 12 0 190 -1 395 -2 323 -2 373 0 376
13 2 8 3 53 2 100 l-1 85 -397 0 -398 0 0 -97z"/>
<path d="M3633 2322 l-63 -3 0 -97 0 -98 398 0 397 -1 0 99 0 98 -30 0 c-205
3 -654 4 -702 2z"/>
<path d="M3570 1430 l0 -100 398 0 398 0 -2 90 c-1 50 -2 95 -3 100 -1 6 -140
10 -396 10 l-395 0 0 -100z"/>
</g>
</svg>
